<svg width="60" height="60" viewBox="0 0 60 60" fill="none" xmlns="http://www.w3.org/2000/svg">
<rect opacity="0.066125" width="60" height="60" rx="6" fill="#FF0000"/>
<path d="M31.9056 28.8663C31.9056 28.8663 32.8381 23.3812 29.0331 21C28.9184 22.9061 27.9974 24.6731 26.5006 25.8587C24.8756 27.2875 21.8193 30.5 21.8518 33.925C21.828 36.9116 23.4997 39.6534 26.1656 41C26.2599 39.6645 26.8879 38.4233 27.9081 37.5562C28.7725 36.8915 29.3336 35.9074 29.4656 34.825C31.7412 36.0348 33.213 38.3521 33.3406 40.9263V40.9425C35.8557 39.7904 37.5115 37.3241 37.6256 34.56C37.8956 31.3425 36.1331 26.9675 34.5693 25.5375C33.9789 26.8556 33.0621 28.0013 31.9056 28.8663Z" fill="#FF0000"/>
</svg>
