<svg width="60" height="60" viewBox="0 0 60 60" fill="none" xmlns="http://www.w3.org/2000/svg">
<rect opacity="0.101652" width="60" height="60" rx="6" fill="#F9CE23"/>
<path d="M37.6584 35.1014C37.2259 36.0589 37.0197 36.4864 36.4622 37.3327C35.6859 38.5139 34.5922 39.9864 33.2359 39.9989C32.0309 40.0102 31.7209 39.2152 30.0859 39.2239C28.4509 39.2327 28.1084 40.0127 26.9034 40.0014C25.5472 39.9889 24.5109 38.6602 23.7334 37.4777C21.5634 34.1727 21.3359 30.2952 22.6747 28.2339C23.6259 26.7677 25.1272 25.9114 26.5397 25.9114C27.9772 25.9114 28.8797 26.6989 30.0684 26.6989C31.2209 26.6989 31.9234 25.9102 33.5859 25.9102C34.8422 25.9102 36.1734 26.5939 37.1209 27.7752C34.0147 29.4789 34.5197 33.9152 37.6584 35.1014Z" fill="#FDCC0C"/>
<path d="M22.8435 35.1014C23.276 36.0589 23.4823 36.4864 24.0398 37.3327C24.816 38.5139 25.9098 39.9864 27.266 39.9989C28.471 40.0102 28.781 39.2152 30.416 39.2239C32.051 39.2327 32.3935 40.0127 33.5985 40.0014C34.9548 39.9889 35.991 38.6602 36.7685 37.4777C38.9385 34.1727 39.166 30.2952 37.8273 28.2339C36.876 26.7677 35.3748 25.9114 33.9623 25.9114C32.5248 25.9114 31.6223 26.6989 30.4335 26.6989C29.281 26.6989 28.5785 25.9102 26.916 25.9102C25.6598 25.9102 24.3285 26.5939 23.381 27.7752C26.4873 29.4789 25.9823 33.9152 22.8435 35.1014Z" fill="#FDCC0C"/>
<path d="M33.0054 23.3737C33.6879 22.4987 34.2054 21.2625 34.0166 20C32.9029 20.0763 31.6004 20.785 30.8391 21.7088C30.1491 22.5475 29.5791 23.7912 29.8004 25C31.0166 25.0375 32.2741 24.3112 33.0054 23.3737Z" fill="#FDCC0C"/>
</svg>
