<svg width="178" height="61" viewBox="0 0 178 61" fill="none" xmlns="http://www.w3.org/2000/svg">
<path d="M72.2799 38.5549C71.1485 38.0476 70.3314 37.2867 69.7029 36.3356C69.0744 35.3844 68.7601 34.3065 68.6973 33.0383H71.6514C71.7142 34.1163 72.217 35.004 72.9713 35.7015C73.7255 36.399 74.8569 36.716 76.1139 36.716C77.2453 36.716 78.1252 36.4624 78.8166 36.0185C79.508 35.5113 79.8851 34.8772 79.8851 33.9894C79.8851 33.3553 79.6966 32.8481 79.3194 32.4676C78.9423 32.0871 78.4395 31.8335 77.811 31.6433C77.1824 31.4531 76.2396 31.2628 75.0454 31.0092H74.9197C73.7884 30.819 72.7827 30.5653 71.9656 30.1849C71.1485 29.8044 70.4571 29.2971 69.8915 28.5996C69.3886 27.9021 69.1372 26.951 69.1372 25.8096C69.1372 24.7316 69.3886 23.7805 69.9543 22.9562C70.52 22.1318 71.2742 21.4977 72.2799 20.9905C73.2855 20.5466 74.4169 20.293 75.674 20.293C76.9939 20.293 78.1881 20.5466 79.1937 21.0539C80.2622 21.5612 81.0793 22.1953 81.645 23.083C82.2735 23.9707 82.5878 24.9853 82.5878 26.0632H79.6337C79.508 25.1121 79.068 24.3512 78.3766 23.7805C77.6853 23.2098 76.7425 22.8928 75.674 22.8928C74.6055 22.8928 73.7255 23.1464 73.097 23.5903C72.4685 24.0341 72.1542 24.7316 72.1542 25.556C72.1542 26.1901 72.3427 26.6339 72.7199 27.0144C73.097 27.3314 73.5998 27.6485 74.2283 27.8387C74.8569 28.0289 75.7368 28.2192 76.931 28.4728C78.1252 28.663 79.1309 28.9801 80.0108 29.2971C80.8908 29.6142 81.5821 30.1849 82.1478 30.8824C82.7135 31.5799 82.9649 32.531 82.9649 33.6724C82.9649 34.7503 82.6507 35.7015 82.085 36.5892C81.5193 37.477 80.7022 38.1111 79.6337 38.6183C78.5652 39.1256 77.4338 39.3158 76.1139 39.3158C74.6683 39.3792 73.3484 39.1256 72.2799 38.5549Z" fill="#E60000"/>
<path d="M95.8503 26.2533C96.7931 26.824 97.5474 27.5849 98.113 28.6629C98.6787 29.7409 98.9301 30.9456 98.9301 32.4041C98.9301 33.7991 98.6787 35.0038 98.113 36.0184C97.5474 37.0964 96.7931 37.9207 95.8503 38.4914C94.9075 39.0621 93.7762 39.3791 92.582 39.3791C91.3878 39.3791 90.3821 39.1255 89.565 38.6182C88.7479 38.1109 88.1823 37.4134 87.7423 36.5891L88.1194 35.955V44.5787H85.291V25.6192H87.7423L88.308 28.9799L87.6794 28.3458C88.1823 27.5215 88.8108 26.824 89.565 26.2533C90.3821 25.7461 91.3249 25.4924 92.5191 25.4924C93.7762 25.429 94.8447 25.7461 95.8503 26.2533ZM90.005 28.4093C89.3765 28.7897 88.9365 29.297 88.6222 29.9945C88.308 30.692 88.1194 31.4529 88.1194 32.3406C88.1194 33.2284 88.308 34.0527 88.6222 34.7502C88.9365 35.4477 89.4393 35.955 90.005 36.3989C90.6335 36.7793 91.2621 36.9695 92.0791 36.9695C92.8334 36.9695 93.5248 36.7793 94.1533 36.3989C94.7818 36.0184 95.2218 35.4477 95.5361 34.8136C95.8503 34.1161 96.0389 33.3552 96.0389 32.4675C96.0389 31.5797 95.8503 30.8188 95.5361 30.1213C95.2218 29.4238 94.7818 28.9165 94.1533 28.5361C93.5248 28.1556 92.8334 27.9654 92.0791 27.9654C91.2621 27.8386 90.5707 28.0288 90.005 28.4093Z" fill="#E60000"/>
<path d="M104.021 38.4921C102.952 37.9214 102.135 37.097 101.569 36.0191C101.004 34.9411 100.689 33.7363 100.689 32.4047C100.689 31.0097 101.004 29.8049 101.569 28.727C102.135 27.649 102.952 26.8881 104.021 26.3174C105.089 25.7467 106.283 25.4297 107.603 25.4297C108.986 25.4297 110.18 25.7467 111.186 26.3174C112.254 26.8881 113.072 27.7124 113.637 28.727C114.203 29.8049 114.517 31.0097 114.517 32.4047C114.517 33.7997 114.203 35.0045 113.637 36.0825C113.072 37.1605 112.254 37.9214 111.186 38.5555C110.117 39.1262 108.923 39.4432 107.603 39.4432C106.221 39.3798 105.026 39.0627 104.021 38.4921ZM109.677 36.3361C110.306 35.9557 110.746 35.4484 111.06 34.7509C111.374 34.0534 111.563 33.2925 111.563 32.4047C111.563 31.517 111.374 30.7561 111.06 30.0586C110.746 29.3611 110.306 28.8538 109.677 28.4733C109.049 28.0929 108.358 27.9027 107.603 27.9027C106.849 27.9027 106.095 28.0929 105.529 28.4733C104.901 28.8538 104.461 29.3611 104.146 30.0586C103.832 30.7561 103.644 31.517 103.644 32.4047C103.644 33.2925 103.832 34.0534 104.146 34.7509C104.461 35.4484 104.963 35.9557 105.529 36.3361C106.158 36.7166 106.849 36.9068 107.603 36.9068C108.358 36.9068 109.112 36.7166 109.677 36.3361Z" fill="#E60000"/>
<path d="M119.294 25.6211L119.797 28.9818L119.231 28.3477C119.608 27.5234 120.174 26.8259 120.802 26.382C121.431 25.8747 122.374 25.6845 123.568 25.6845H124.196V28.3477H122.939C121.745 28.3477 120.928 28.7282 120.362 29.4891C119.859 30.25 119.545 31.2645 119.545 32.4693V39.3176H116.717V25.6211H119.294Z" fill="#E60000"/>
<path d="M126.082 21.75H128.91V25.5546H132.179V28.0275H128.91V35.1294C128.91 35.7001 129.036 36.0806 129.225 36.2708C129.413 36.5244 129.79 36.5878 130.293 36.5878H132.493V39.1242H129.728C128.47 39.1242 127.528 38.8072 126.962 38.2365C126.396 37.6658 126.082 36.7147 126.082 35.4465V21.75Z" fill="#E60000"/>
<path d="M137.208 38.5549C136.076 38.0476 135.259 37.2867 134.631 36.3356C134.002 35.3844 133.688 34.3065 133.625 33.0383H136.579C136.642 34.1163 137.145 35.004 137.899 35.7015C138.653 36.399 139.785 36.716 141.042 36.716C142.173 36.716 143.053 36.4624 143.744 36.0185C144.436 35.5113 144.813 34.8772 144.813 33.9894C144.813 33.3553 144.624 32.8481 144.247 32.4676C143.87 32.0871 143.367 31.8335 142.739 31.6433C142.11 31.4531 141.167 31.2628 139.973 31.0092H139.847C138.716 30.819 137.71 30.5653 136.893 30.1849C136.076 29.8044 135.385 29.2971 134.819 28.5996C134.316 27.9021 134.065 26.951 134.065 25.8096C134.065 24.7316 134.316 23.7805 134.882 22.9562C135.448 22.1318 136.202 21.4977 137.208 20.9905C138.213 20.5466 139.345 20.293 140.602 20.293C141.922 20.293 143.116 20.5466 144.121 21.0539C145.19 21.5612 146.007 22.1953 146.573 23.083C147.201 23.9707 147.516 24.9853 147.516 26.0632H144.561C144.436 25.1121 143.996 24.3512 143.304 23.7805C142.613 23.2098 141.67 22.8928 140.602 22.8928C139.533 22.8928 138.653 23.1464 138.025 23.5903C137.396 24.0341 137.082 24.7316 137.082 25.556C137.082 26.1901 137.27 26.6339 137.648 27.0144C138.025 27.3314 138.528 27.6485 139.156 27.8387C139.785 28.0289 140.665 28.2192 141.859 28.4728C143.053 28.663 144.059 28.9801 144.939 29.2971C145.819 29.6142 146.51 30.1849 147.076 30.8824C147.641 31.5799 147.893 32.531 147.893 33.6724C147.893 34.7503 147.578 35.7015 147.013 36.5892C146.447 37.477 145.63 38.1111 144.561 38.6183C143.493 39.1256 142.362 39.3158 141.042 39.3158C139.596 39.3792 138.339 39.1256 137.208 38.5549Z" fill="#E60000"/>
<path d="M153.046 38.4921C151.978 37.9214 151.16 37.097 150.595 36.0825C150.029 35.0045 149.715 33.7998 149.715 32.4047C149.715 31.0097 149.966 29.7415 150.532 28.727C151.098 27.7124 151.852 26.8881 152.858 26.3174C153.863 25.7467 154.995 25.4297 156.314 25.4297C157.634 25.4297 158.766 25.6833 159.771 26.1906C160.777 26.6979 161.531 27.4588 162.097 28.4733C162.663 29.4879 162.977 30.6293 162.977 31.8975C162.977 32.0877 162.977 32.2145 162.977 32.4047C162.977 32.595 162.977 32.7852 162.914 32.9754H152.732C152.732 33.0388 152.732 33.0388 152.732 33.0388V33.1022C152.795 33.8632 152.92 34.5607 153.235 35.1314C153.549 35.702 153.989 36.1459 154.555 36.463C155.12 36.78 155.749 36.9702 156.503 36.9702C157.383 36.9702 158.137 36.78 158.703 36.3361C159.331 35.8923 159.708 35.3216 159.897 34.5607H162.788C162.6 35.4484 162.285 36.2727 161.72 36.9702C161.154 37.6677 160.463 38.2384 159.646 38.6823C158.766 39.0627 157.823 39.3164 156.754 39.3164C155.309 39.3798 154.052 39.0627 153.046 38.4921ZM154.743 28.1563C154.24 28.4099 153.8 28.7904 153.486 29.2977C153.172 29.8049 152.92 30.3122 152.858 30.9463H160.086C159.96 29.9318 159.583 29.1074 158.954 28.6002C158.326 28.0295 157.446 27.7758 156.44 27.7758C155.812 27.7124 155.246 27.8393 154.743 28.1563Z" fill="#E60000"/>
<path d="M168.068 38.4921C166.999 37.9214 166.182 37.097 165.616 36.0825C165.051 35.0045 164.736 33.7998 164.736 32.4047C164.736 31.0097 164.988 29.7415 165.553 28.727C166.119 27.7124 166.873 26.8881 167.879 26.3174C168.885 25.7467 170.016 25.4297 171.336 25.4297C172.656 25.4297 173.787 25.6833 174.793 26.1906C175.798 26.6979 176.553 27.4588 177.118 28.4733C177.684 29.4879 177.998 30.6293 177.998 31.8975C177.998 32.0877 177.998 32.2145 177.998 32.4047C177.998 32.595 177.998 32.7852 177.935 32.9754H167.753C167.753 33.0388 167.753 33.0388 167.753 33.0388V33.1022C167.816 33.8632 167.942 34.5607 168.256 35.1314C168.57 35.702 169.01 36.1459 169.576 36.463C170.142 36.78 170.77 36.9702 171.524 36.9702C172.404 36.9702 173.159 36.78 173.724 36.3361C174.353 35.8923 174.73 35.3216 174.919 34.5607H177.81C177.621 35.4484 177.307 36.2727 176.741 36.9702C176.176 37.6677 175.484 38.2384 174.667 38.6823C173.787 39.0627 172.844 39.3164 171.776 39.3164C170.33 39.3798 169.136 39.0627 168.068 38.4921ZM169.765 28.1563C169.262 28.4099 168.822 28.7904 168.508 29.2977C168.193 29.8049 167.942 30.3122 167.879 30.9463H175.107C174.981 29.9318 174.604 29.1074 173.976 28.6002C173.347 28.0295 172.467 27.7758 171.462 27.7758C170.833 27.7124 170.267 27.8393 169.765 28.1563Z" fill="#E60000"/>
<path d="M29.5982 58.7027C45.3925 58.7027 58.1963 45.7855 58.1963 29.8514C58.1963 13.9172 45.3925 1 29.5982 1C13.8038 1 1 13.9172 1 29.8514C1 45.7855 13.8038 58.7027 29.5982 58.7027Z" fill="#FF0101"/>
<path d="M41.9175 17.4234C44.5556 17.4234 46.6943 15.2658 46.6943 12.6043C46.6943 9.94275 44.5556 7.78516 41.9175 7.78516C39.2793 7.78516 37.1406 9.94275 37.1406 12.6043C37.1406 15.2658 39.2793 17.4234 41.9175 17.4234Z" fill="#020203"/>
<mask id="mask0_526_3340" style="mask-type:alpha" maskUnits="userSpaceOnUse" x="1" y="1" width="58" height="58">
<path d="M29.5982 58.7027C45.3925 58.7027 58.1963 45.7855 58.1963 29.8514C58.1963 13.9172 45.3925 1 29.5982 1C13.8038 1 1 13.9172 1 29.8514C1 45.7855 13.8038 58.7027 29.5982 58.7027Z" fill="#FF0101"/>
</mask>
<g mask="url(#mask0_526_3340)">
<path d="M40.5352 30.4227C40.8494 30.93 41.4151 31.247 42.0436 31.247C42.3579 31.247 42.6722 31.1836 42.9864 30.9934L51.5973 25.7938C52.4773 25.2865 52.7287 24.1451 52.2258 23.3208C51.723 22.4331 50.5917 22.1794 49.7746 22.6867L42.6093 26.9986L39.1524 20.2137C38.2096 19.2626 37.1411 18.3115 36.0726 17.4871L25.8275 12.2875C25.1362 11.9705 24.3819 12.0339 23.8162 12.5412L15.2682 20.3406C14.514 21.0381 14.4511 22.1794 15.1425 22.8769C15.8339 23.6379 16.9653 23.7013 17.6566 23.0038L25.3876 16.0287L30.7301 18.7553L21.5535 33.0859L0.623453 58.0692C-0.193637 59.0204 -0.130784 60.5422 0.874865 61.3665C1.81766 62.1909 3.32614 62.1275 4.14323 61.1129L24.4448 37.4611L33.1814 39.4902L27.2103 48.9383C26.5818 50.0796 26.9589 51.4747 28.0903 52.1087C29.0959 52.6794 30.4158 52.4258 31.1072 51.4112L38.7753 39.1732C39.2153 38.5391 39.2781 37.7148 39.0267 37.0173C38.7124 36.3198 38.1468 35.8125 37.3925 35.6857L30.6672 34.1004L36.764 24.4622L40.5352 30.4227Z" fill="#020203"/>
</g>
</svg>
