<svg width="60" height="60" viewBox="0 0 60 60" fill="none" xmlns="http://www.w3.org/2000/svg">
<rect width="60" height="60" rx="6" fill="#4AB8FF" fill-opacity="0.1"/>
<path d="M39.2353 24.4722C38.8824 24.1193 38.4118 23.884 38.0588 23.884C37.9412 23.4134 37.8235 23.0604 37.4706 22.7075C36.6471 21.884 35.2353 21.884 34.4118 22.7075C33.7059 23.4134 33.5882 24.5898 34.1765 25.4134L31.5882 27.884L30.2941 26.5898L27.7059 29.1781C27.4706 29.0604 27.1176 29.0604 26.8824 29.0604C23.5882 29.0604 21 31.6487 21 34.9428C21 38.2369 23.5882 40.8251 26.8824 40.8251C30.1765 40.8251 32.7647 38.2369 32.7647 34.9428C32.7647 34.7075 32.7647 34.3545 32.6471 34.1193L35.2353 31.531L33.9412 30.2369L36.4118 27.7663C37.2353 28.3545 38.4118 28.2369 39.1176 27.531C40.0588 26.7075 40.0588 25.2957 39.2353 24.4722Z" fill="#4AB8FF"/>
</svg>
